<svg fill="none" height="48" viewBox="0 0 48 48" width="48" xmlns="http://www.w3.org/2000/svg"><path d="m24 47c4.4183 0 8-3.5817 8-8s-3.5817-8-8-8-8 3.5817-8 8 3.5817 8 8 8z" fill="#1575e5"/><path d="m38.9515 18.9516c-.648-7.8859-7.1485-13.9516-14.9515-13.9516s-14.30345 6.0657-14.95146 13.9516l-.5208 6.3379c-.20059 2.4411-.95116 4.8028-2.19386 6.9032l-1.65081 2.7902c-1.39678 2.3609-.62367 4.7887 2.06498 5.1704 3.12727.444 8.40285.8467 17.25195.8467s14.1247-.4027 17.252-.8467c2.6886-.3817 3.4617-2.8095 2.0649-5.1704l-1.6508-2.7902c-1.2427-2.1004-1.9933-4.4621-2.1938-6.9032z" fill="#a6cfff"/><g clip-rule="evenodd" fill="#1575e5" fill-rule="evenodd"><path d="m5.32684 18.9809c.73614-.0675 1.19112-.7493 1.29402-1.4814.74306-5.2858 3.47844-9.83096 7.59714-12.6666.5108-.35164.9092-.91056.7442-1.50832-.2176-.7886-.7652-1.45422-1.2617-1.92473-.5436-.515141-1.3625-.516756-1.9772-.08879-4.88808 3.40374-8.77085 9.34124-9.70411 15.61684-.11687.7858.30297 1.5517 1.06344 1.7818.62615.1894 1.4285.3459 2.24421.2712z"/><path d="m42.6732 18.9809c-.7362-.0675-1.1912-.7493-1.2941-1.4814-.743-5.2858-3.4784-9.83096-7.5971-12.6666-.5108-.35164-.9092-.91056-.7442-1.50832.2176-.7886.7652-1.45422 1.2617-1.92473.5436-.515141 1.3625-.516756 1.9772-.08879 4.8881 3.40374 8.7708 9.34124 9.7041 15.61684.1169.7858-.303 1.5517-1.0634 1.7818-.6262.1894-1.4285.3459-2.2442.2712z"/></g></svg>