<svg fill="none" height="24" viewBox="0 0 24 24" width="24" xmlns="http://www.w3.org/2000/svg"><path d="m24 0h-24v24h24z" fill="#fff" opacity=".58"/><g fill="#292d32"><path d="m16.1898 2h-8.37004c-3.64 0-5.80999 2.17-5.80999 5.81v8.37c0 3.64 2.16999 5.81 5.80999 5.81h8.37004c3.64 0 5.81-2.17 5.81-5.81v-8.37c0-3.64-2.17-5.81-5.81-5.81z" opacity=".4"/><path d="m13.9205 9.2802.05 2.95 2.63-.04c.19 0 .33.17.3.35l-.3501 1.91c-.03.14-.1499.24-.2899.25l-2.25.04.12 7.25-3 .05-.12-7.25-1.70004.03c-.17 0-.29999-.13-.29999-.3l-.03-1.9c0-.17.12999-.3.29999-.3l1.70004-.03-.05-3.25c-.03-1.66 1.29-3.02 2.95-3.05l2.6999-.04c.17 0 .3001.13.3001.3l.04 2.4c0 .17-.13.3-.3.3l-2.4.04c-.17-.01-.3.13-.3.29z"/></g></svg>