<svg fill="none" height="24" viewBox="0 0 24 24" width="24" xmlns="http://www.w3.org/2000/svg"><g fill="#292d32"><path d="m16.19 2h-8.38c-3.64 0-5.81 2.17-5.81 5.81v8.37c0 3.65 2.17 5.82 5.81 5.82h8.37c3.64 0 5.81-2.17 5.81-5.81v-8.38c.01-3.64-2.16-5.81-5.8-5.81z" opacity=".4"/><path d="m11.9991 15.8801c2.1429 0 3.88-1.7371 3.88-3.88 0-2.14285-1.7371-3.87998-3.88-3.87998-2.14282 0-3.87996 1.73713-3.87996 3.87998 0 2.1429 1.73714 3.88 3.87996 3.88z"/><path d="m17 7.4999c-.27 0-.52-.1-.71-.29-.09-.1-.16-.21-.21-.33s-.08-.25-.08-.38.03-.26.08-.38c.05-.13.12-.23.21-.33.23-.23.58-.34.9-.27.07.01.13.03.19.06.06.02.12.05.18.09.05.03.1.08.15.12.09.1.16.2.21.33.05.12.08.25.08.38s-.03.26-.08.38-.12.23-.21.33c-.1.09-.21.16-.33.21s-.25.08-.38.08z"/></g></svg>