<svg height="64" viewBox="0 0 64 64" width="64" xmlns="http://www.w3.org/2000/svg"><g fill="none" transform="matrix(-.70710678 -.70710678 -.70710678 .70710678 56.698478 32.999764)"><path d="m20 4c1.1045695 0 2-.8954305 2-2s-.8954305-2-2-2h-20v20c0 1.1045695.8954305 2 2 2s2-.8954305 2-2v-16z" fill="#b4dffb"/><path d="m30 14c1.1045695 0 2-.8954305 2-2s-.8954305-2-2-2h-20v20c0 1.1045695.8954305 2 2 2s2-.8954305 2-2v-16z" fill="#5ea7ff"/><path d="m40 24c1.1045695 0 2-.8954305 2-2s-.8954305-2-2-2h-20v20c0 1.1045695.8954305 2 2 2s2-.8954305 2-2v-16z" fill="#5b68c0"/></g></svg>