<svg fill="none" height="48" viewBox="0 0 48 48" width="48" xmlns="http://www.w3.org/2000/svg"><path d="m24 45c-11.598 0-21-9.402-21-21s9.402-21 21-21 21 9.402 21 21-9.402 21-21 21z" fill="#a6cfff"/><g fill="#1575e5"><path d="m12.0918 22.8968c.1498-.8057.9153-1.1883 1.7339-1.2283 1.491-.073 4.5225-.1685 10.1743-.1685s8.6833.0955 10.1743.1685c.8186.04 1.5841.4226 1.734 1.2283.0549.2954.0917.659.0917 1.1032s-.0368.8078-.0917 1.1032c-.1499.8057-.9154 1.1883-1.734 1.2283-1.491.073-4.5225.1685-10.1743.1685s-8.6833-.0955-10.1743-.1685c-.8186-.04-1.5841-.4226-1.7339-1.2283-.055-.2954-.0918-.659-.0918-1.1032s.0368-.8078.0918-1.1032z"/><path d="m35.9083 13.8968c-.1499-.8057-.9154-1.1883-1.734-1.2283-1.491-.073-4.5225-.1685-10.1743-.1685s-8.6833.0955-10.1743.1685c-.8186.04-1.5841.4226-1.7339 1.2283-.055.2954-.0918.659-.0918 1.1032s.0368.8078.0918 1.1032c.1498.8057.9153 1.1883 1.7339 1.2283 1.491.073 4.5225.1685 10.1743.1685s8.6833-.0955 10.1743-.1685c.8186-.04 1.5841-.4226 1.734-1.2283.0549-.2954.0917-.659.0917-1.1032s-.0368-.8078-.0917-1.1032z"/><path d="m35.9083 31.8968c-.1499-.8057-.9154-1.1883-1.734-1.2283-1.491-.073-4.5225-.1685-10.1743-.1685s-8.6833.0955-10.1743.1685c-.8186.04-1.5841.4226-1.7339 1.2283-.055.2954-.0918.659-.0918 1.1032s.0368.8078.0918 1.1032c.1498.8057.9153 1.1883 1.7339 1.2283 1.491.073 4.5225.1685 10.1743.1685s8.6833-.0955 10.1743-.1685c.8186-.04 1.5841-.4226 1.734-1.2283.0549-.2954.0917-.659.0917-1.1032s-.0368-.8078-.0917-1.1032z"/></g></svg>