<svg fill="none" height="24" viewBox="0 0 24 24" width="24" xmlns="http://www.w3.org/2000/svg"><g fill="#292d32"><path d="m22 7.81v8.38c0 2.81-1.29 4.74-3.56 5.47-.66.23-1.42.34-2.25.34h-8.38c-.83 0-1.59-.11-2.25-.34-2.27-.73-3.56-2.66-3.56-5.47v-8.38c0-3.64 2.17-5.81 5.81-5.81h8.38c3.64 0 5.81 2.17 5.81 5.81z" opacity=".4"/><path d="m18.4406 21.66c-.66.23-1.42.34-2.25.34h-8.38005c-.83 0-1.59-.11-2.25-.34.35-2.64 3.11-4.69 6.43995-4.69 3.33 0 6.0901 2.05 6.4401 4.69z"/><path d="m15.5799 11.58c0 1.98-1.6 3.59-3.58 3.59s-3.57998-1.61-3.57998-3.59c0-1.97998 1.59998-3.58 3.57998-3.58s3.58 1.60002 3.58 3.58z"/></g></svg>